<?xml version="1.0" encoding="iso-8859-1"?>
<!-- Generator: Adobe Illustrator 19.0.0, SVG Export Plug-In . SVG Version: 6.00 Build 0)  -->
<svg version="1.1" id="Capa_1" xmlns="http://www.w3.org/2000/svg" xmlns:xlink="http://www.w3.org/1999/xlink" x="0px" y="0px"
	 viewBox="0 0 512 512" style="enable-background:new 0 0 512 512;" xml:space="preserve">
<circle style="fill:#B9EAFF;" cx="256" cy="256" r="256"/>
<path style="fill:#35CCFF;" d="M512,256c0-18.936-2.074-37.384-5.975-55.148l-59.823-59.823l-8.023,9.688L425,137.538
	l-78.335,116.889L243.097,150.859L65.798,368.933l137.659,137.659C220.418,510.13,237.99,512,256,512
	C397.385,512,512,397.385,512,256z"/>
<path style="fill:#FF6838;" d="M256,214.183v-22.79c0-27.815-22.549-50.364-50.364-50.364H65.798v227.904h139.838
	c14.58,0,27.706,6.203,36.903,16.105H256V214.183z"/>
<path style="fill:#AE4E32;" d="M306.364,368.933h139.838V141.029H306.364c-27.815,0-50.364,22.549-50.364,50.364v22.79v170.855
	h13.461C278.658,375.136,291.784,368.933,306.364,368.933z"/>
<path style="fill:#FFFFFF;" d="M300.75,137.538c-24.715,0-44.75,20.035-44.75,44.75c0-24.715-20.035-44.75-44.75-44.75H87v202.5
	h124.25c14.685,0,27.718,7.074,35.877,18H256h8.873c8.159-10.926,21.192-18,35.877-18H425v-202.5H300.75z"/>
<path style="fill:#E0E0E0;" d="M300.75,340.038H425v-202.5H300.75c-24.715,0-44.75,20.035-44.75,44.75v20.25v155.5h8.873
	C273.032,347.112,286.065,340.038,300.75,340.038z"/>
<g>
</g>
<g>
</g>
<g>
</g>
<g>
</g>
<g>
</g>
<g>
</g>
<g>
</g>
<g>
</g>
<g>
</g>
<g>
</g>
<g>
</g>
<g>
</g>
<g>
</g>
<g>
</g>
<g>
</g>
</svg>
